<svg xmlns="http://www.w3.org/2000/svg" width="1440" height="900" viewBox="0 0 1440 900">
<rect width="1440" height="900" fill="#12151c"/><rect width="235" height="900" fill="#1a1f2b"/><line x1="235" x2="235" y2="900" stroke="#2a3040"/>
<style>text{font-family:-apple-system,BlinkMacSystemFont,"Segoe UI",Arial,sans-serif;fill:#e4e7ec}.dim{fill:#8b93a7}.accent{fill:#ff6b4a}.small{font-size:12px}.tiny{font-size:10px}.title{font-size:26px;font-weight:700}.h{font-size:14px;font-weight:700}.panel{fill:#1a1f2b;stroke:#2a3040}.line{stroke:#2a3040}.mono{font-family:Consolas,monospace}</style>
<text x="22" y="35" class="accent" font-size="20">⚙</text><text x="49" y="31" class="h">engineer_kit</text><text x="49" y="48" class="tiny dim">LOCAL LAB</text><line x1="0" x2="235" y1="70" y2="70" stroke="#2a3040"/>
<rect x="0" y="86" width="235" height="42" fill="#202635"/><text x="22" y="112" class="small" font-weight="700">Pipelines</text><text x="22" y="154" class="small dim">Arquitetura &amp; docs</text><text x="22" y="196" class="small dim">Dados locais</text><text x="22" y="238" class="small dim">dbt</text><rect x="22" y="300" width="190" height="28" rx="14" fill="none" stroke="#2a3040"/><text x="82" y="318" class="tiny dim">RUNTIME LOCAL</text><rect x="22" y="344" width="190" height="42" rx="8" fill="#ff6b4a"/><text x="74" y="370" class="small" font-weight="700" fill="#fff">+ Novo pipeline</text>
<text x="280" y="54" class="title">Pipelines</text><text x="280" y="81" class="small dim">Conectores configurados neste workspace.</text>
<rect x="280" y="120" width="1125" height="220" rx="8" class="panel"/><g class="tiny dim" font-weight="700"><text x="300" y="150">NOME</text><text x="475" y="150">ENDPOINT</text><text x="825" y="150">ÚLTIMA EXECUÇÃO</text><text x="1055" y="150">STATUS</text><text x="1190" y="150">REGISTROS</text></g><line x1="280" y1="168" x2="1405" y2="168" class="line"/>
<g class="small"><text x="300" y="202">orders</text><text x="475" y="202">api.example.com/v1/orders</text><text x="825" y="202">2026-08-14 04:17:05</text><text x="1190" y="202">25.000</text><text x="300" y="252">customers</text><text x="475" y="252">api.example.com/v1/customers</text><text x="825" y="252">2026-08-14 04:11:42</text><text x="1190" y="252">50.000</text><text x="300" y="302">github_commits</text><text x="475" y="302">api.github.com/repos/.../commits</text><text x="825" y="302">2026-08-14 04:09:13</text><text x="1190" y="302">18.427</text></g>
<g><rect x="1050" y="186" width="78" height="20" rx="10" fill="#173c34"/><text x="1064" y="200" class="tiny" fill="#3ecf8e">SUCCESS</text><rect x="1050" y="236" width="78" height="20" rx="10" fill="#173c34"/><text x="1064" y="250" class="tiny" fill="#3ecf8e">SUCCESS</text><rect x="1050" y="286" width="78" height="20" rx="10" fill="#4a3b18"/><text x="1061" y="300" class="tiny" fill="#f5b942">RUNNING</text></g>
<text x="280" y="390" class="small dim" font-weight="700">LOCAL LAB</text><rect x="280" y="410" width="350" height="145" rx="8" class="panel"/><text x="302" y="443" class="h">Streaming-first</text><text x="302" y="475" class="small dim">Extração em batches limitados</text><text x="302" y="498" class="small dim">sem materializar a API inteira.</text><text x="302" y="526" class="small mono accent">25.000 / batch</text>
<rect x="650" y="410" width="350" height="145" rx="8" class="panel"/><text x="672" y="443" class="h">Profile antes da Bronze</text><text x="672" y="475" class="small dim">Data Quality + validação de PK</text><text x="672" y="498" class="small dim">sem destination write/checkpoint.</text><text x="672" y="526" class="small mono accent">sample → full</text>
<rect x="1020" y="410" width="385" height="145" rx="8" class="panel"/><text x="1042" y="443" class="h">Checkpoint confiável</text><text x="1042" y="475" class="small dim">Watermark só avança depois</text><text x="1042" y="498" class="small dim">do boundary de sucesso.</text><text x="1042" y="526" class="small mono accent">CAS + state_key</text>
</svg>